<svg xmlns="http://www.w3.org/2000/svg" fill="none" viewBox="0 0 24 24" stroke="currentColor"><circle cx="12" cy="12" r="3"/><path stroke-linecap="round" stroke-linejoin="round" d="M19.4 15a1.7 1.7 0 0 0 .33 1.82l0 0a1.998 1.998 0 1 1-2.83 2.82l0 0A1.7 1.7 0 0 0 15 19.4V20a2 2 0 1 1-4 0v-.6A1.7 1.7 0 0 0 8.6 19.4l0 0a1.998 1.998 0 1 1-2.82-2.82l0 0A1.7 1.7 0 0 0 4.6 15H4a2 2 0 1 1 0-4h.6A1.7 1.7 0 0 0 4.6 8.6l0 0A1.998 1.998 0 1 1 7.4 5.77l0 0A1.7 1.7 0 0 0 9 4.6V4a2 2 0 1 1 4 0v.6a1.7 1.7 0 0 0 1.82.33l0 0a1.998 1.998 0 1 1 2.82 2.83l0 0A1.7 1.7 0 0 0 19.4 9h.6a2 2 0 1 1 0 4h-.6z"/></svg>
